# xmcd
#
# Track frame offsets:
#	150
#	9143
#	28708
#	53244
#	67330
#	69348
#	87832
#	106003
#	129520
#	135378
#	173316
#	186788
#	214782
#	217019
#	241668
#	269379
#
# Disc length: 4032 seconds
#
# Revision: 1
# Processed by: cddbd v1.5.1PL0 Copyright (c) Steve Scherf et al.
# Submitted via: CDex 1.50Beta5
#
DISCID=d40fbe10
DTITLE=さまざまなアーティスト - beauty parlor
DYEAR=1900
DGENRE=Other
TTITLE0=interrude
TTITLE1=azul de voce
TTITLE2=scents and seasons
TTITLE3=iadelante
TTITLE4=interlude
TTITLE5=soap
TTITLE6=el insecto
TTITLE7=el mensaje
TTITLE8=interlude〜apres soleil
TTITLE9=balm beach
TTITLE10=tao delicado
TTITLE11=jacuzzi jazz
TTITLE12=interlude 〜90 60 90〜
TTITLE13=aquitane
TTITLE14=lagrimas de rocio
TTITLE15=beauty sleep
EXTD=
EXTT0=
EXTT1=
EXTT2=
EXTT3=
EXTT4=
EXTT5=
EXTT6=
EXTT7=
EXTT8=
EXTT9=
EXTT10=
EXTT11=
EXTT12=
EXTT13=
EXTT14=
EXTT15=
PLAYORDER=
